<mxfile host="app.diagrams.net" modified="2023-08-21T21:32:37.418Z" agent="Mozilla/5.0 (Windows NT 10.0; Win64; x64) AppleWebKit/537.36 (KHTML, like Gecko) Chrome/115.0.0.0 Safari/537.36" version="21.6.8" etag="mmVJyMDqWaQPmWZ8OIFi" type="github">
  <diagram name="Page-1" id="mWY9fTn6Cz4Mrt8iLZ9B">
    <mxGraphModel>
      <root>
        <mxCell id="0" />
        <mxCell id="1" parent="0" />
      </root>
    </mxGraphModel>
  </diagram>
</mxfile>
